<?xml version="1.0" standalone="no"?>
<!DOCTYPE svg PUBLIC "-//W3C//DTD SVG 20010904//EN"
 "http://www.w3.org/TR/2001/REC-SVG-20010904/DTD/svg10.dtd">
<svg version="1.0" xmlns="http://www.w3.org/2000/svg"
 width="1254.000000pt" height="1254.000000pt" viewBox="0 0 1254.000000 1254.000000"
 preserveAspectRatio="xMidYMid meet">
<metadata>
Created by potrace 1.14, written by Peter Selinger 2001-2017
</metadata>
<g transform="translate(0.000000,1254.000000) scale(0.100000,-0.100000)"
fill="#000000" stroke="none">
<path d="M3475 11645 c-2 -11 -3 -406 -3 -877 l1 -858 51 -1 c28 0 353 0 723
0 l672 0 81 -252 c45 -139 88 -270 95 -292 8 -22 62 -188 120 -370 59 -181
113 -348 120 -370 65 -186 176 -548 172 -559 -3 -7 -53 -86 -112 -177 -134
-204 -130 -199 -372 -574 -321 -499 -351 -545 -560 -867 -109 -169 -214 -333
-233 -363 -19 -31 -69 -108 -112 -173 -42 -64 -172 -265 -288 -447 -117 -181
-236 -366 -265 -410 -45 -69 -243 -377 -393 -610 -25 -38 -74 -115 -110 -170
-36 -55 -79 -122 -97 -150 -90 -140 -207 -321 -360 -557 -39 -59 -77 -119 -85
-133 -15 -24 -312 -485 -435 -672 -33 -51 -92 -143 -132 -205 -73 -114 -541
-839 -715 -1107 -51 -79 -103 -161 -116 -183 l-23 -38 1084 0 1084 0 96 143
c53 78 136 201 184 272 49 72 156 229 237 350 82 121 186 274 231 340 97 142
236 347 390 575 246 363 335 495 495 730 92 135 218 322 282 415 298 441 396
586 450 665 32 47 63 92 68 100 6 8 36 53 68 100 32 47 125 184 207 305 141
209 278 411 388 573 27 40 53 70 57 65 4 -4 49 -114 100 -243 50 -129 98 -248
105 -265 7 -16 21 -50 30 -75 26 -67 135 -342 145 -365 5 -11 59 -148 120
-305 62 -157 118 -298 125 -315 7 -16 41 -102 75 -190 34 -88 68 -173 75 -190
15 -36 216 -544 251 -635 14 -36 29 -74 34 -85 21 -46 90 -222 90 -228 0 -4 9
-26 19 -50 11 -23 44 -105 74 -182 31 -77 117 -295 192 -485 180 -455 302
-761 420 -1060 83 -212 127 -321 160 -405 5 -11 16 -40 25 -65 9 -25 24 -46
33 -48 13 -3 307 86 472 143 22 7 114 37 205 65 91 28 221 70 290 92 260 83
340 108 530 168 107 34 292 93 410 130 118 38 323 103 455 145 132 42 260 83
285 90 25 7 110 34 190 60 80 26 200 64 267 85 67 21 127 41 132 45 7 3 7 14
1 28 -5 12 -51 155 -103 317 -109 338 -256 796 -327 1015 -27 83 -54 169 -61
192 -7 24 -18 43 -25 43 -7 0 -115 -32 -239 -71 -124 -39 -233 -72 -243 -74
-9 -2 -51 -15 -92 -30 -41 -14 -77 -25 -80 -25 -3 0 -32 -9 -65 -19 -33 -10
-118 -37 -190 -59 -71 -22 -184 -58 -250 -78 -66 -21 -124 -39 -130 -40 -5 -1
-52 -15 -102 -32 -101 -32 -100 -32 -123 28 -7 19 -19 49 -26 65 -7 17 -46
116 -87 220 -42 105 -181 456 -310 780 -129 325 -278 700 -332 835 -53 135
-103 259 -110 275 -7 17 -34 84 -59 150 -26 66 -51 129 -56 140 -5 11 -44 108
-86 215 -42 107 -82 209 -89 225 -7 17 -95 237 -195 490 -100 253 -185 469
-190 480 -11 25 -100 248 -225 565 -53 135 -102 259 -109 275 -7 17 -73 181
-145 365 -73 184 -139 349 -146 365 -10 26 -48 121 -75 190 -4 11 -15 36 -24
57 -9 20 -16 39 -16 43 0 4 -7 21 -15 38 -15 34 -433 1084 -611 1537 -58 146
-109 274 -114 285 -5 11 -41 101 -80 200 -39 99 -75 189 -79 200 -5 11 -17 40
-26 65 -9 25 -23 59 -30 75 -7 17 -66 163 -130 325 -64 162 -121 299 -126 305
-6 5 -521 9 -1369 10 -1353 0 -1361 0 -1365 -20z"/>
</g>
</svg>
